<svg xmlns="http://www.w3.org/2000/svg" fill-rule="evenodd" stroke-linejoin="round" stroke-miterlimit="1.5" clip-rule="evenodd" viewBox="0 0 1000 1000">
  <path fill="#0079d2" stroke="#000" d="M0 0h1000v1000H0z"/>
  <path fill="#0079d2" fill-rule="nonzero" d="M512.2 151l-85.9 38.8v20.9l-13.2-7-5-2.7-.8-.4-85.4 40.1 42.9 23.7-42.9-23.7.7 20.7-20.3-11.5-96.7 42.4L217.4 401l72.8 51.5-53.5-37.8-16.5 9.4 10.4 97.8 16.3 12.1-13 9.7 8.7 88.2 67.4 52.8 14.7-9.2-4-66.2 5.5 91.2 74.1 59.5-1.1-38.4 1.2 38.4 15.6-12.4-2.5-64.8 3.5 89.7 83.1 69v-94 94.1l83.2-69.1 3.4-89.7-2.4 64.8 15.6 12.4 74.2-59.5 3-49.4-1.5 24.4 14.6 9.2 3.5-47-3.5 47 67.4-52.8 8.8-88.2-69.7 53.4 69.7-53.4-13-9.7 16.3-12.1 10.4-97.8-16.6-9.4-34.3 24.3 53.6-38 11.8-108.8-96.7-42.4-74.6 42.4 94.2 47.6-94.2-47.6v23.1l-20.4-10.2-85.4 47.7 92.8 54.8V521 407.7l-92.8-54.8v19.9l75.5 44.4-92.9-54.6-92.8 54.6 78.9 50.3-79-50.3 75.6-44.4v-19.9l-9.9-5.5 12.2-6v-13.5l13.6 6.7 85.3-42.3 3-102.5zm-29.4 89.7L447 259zm-238.6 75.4l38.6 23.8zm416.4 18L698 353l-4 63.9 4-63.9zM302.3 353l87.6 54.8-87.6-54.8 7 111.7 62 43.3-62-43.3zm461.2 82.7L706.6 475l-5.3 76.2 5.3-76.2zm-526 .6l56.1 38.7 7 99.3-7-99.3zm262.6 40.2v121l92.9-66.6v-20.6l34 22-17 13.3v21l-15-11.8-77.6 54.7v24l-17.3-11.5-17.3 11.4v-23.9l-77.6-54.7-14.9 11.7v-20.9l-17-13.2 34-22v20.5l92.8 66.5z" filter="url(#filter3895)"/>
  <path fill="#08339a" fill-rule="nonzero" d="M413.5 683l3.5 89.6 83.1 69v-94l-86.6-64.7zM400.3 760l-74.1-59.5-5.5-91.2 76.9 59.6 2.7 91.1zM310 684.8L242.6 632l-8.8-88.2 69.8 53.4 6.4 87.6zM300.6 574l-70-52.1-10.4-97.8 73.4 50.7 7 99.2zM500 476.4v121l-92.8-66.6V417.2l92.8 59.2zM390 407.7V521l-80.7-56.4-6.9-111.7 87.7 54.8zM217.4 401l72.8 51.5-7.4-112.7-77.2-47.6L217.4 401z"/>
  <path fill="#498df8" fill-rule="nonzero" d="M753.3 534.1l13.1 9.7-69.7 53.4-6.5 87.6-14.6-9.2 4-66.2-77 59.6L600 760l-15.7-12.5 2.5-64.7-86.6 64.7-86.6-64.7 2.5 64.7-15.6 12.5-2.8-91.1-77-59.6 4 66.2-14.6 9.2-6.4-87.6-69.8-53.4L247 534l53.7 40-7-99.2-73.4-50.7 16.5-9.4 53.5 37.8-7.4-112.7 94.2-47.6-54.4-31-.7-20.6 77.2 42.6 83.7-42.6L408 201l18.2 9.7v-21l73.8 43.2 87-43.1-3 102.5-85.4 42.3L485 328v13.5l-12.2 6-75.6-42.2-95 47.7 7 111.7 80.6 56.4V407.7l92.9-54.8v19.9l-75.5 44.4v93l-34 22 17 13.3v21l14.9-11.8 77.6 54.7v24l17.3-11.5 17.3 11.4v-23.9l77.7-54.7 14.9 11.7v-21l17-13.1-34-22v-93l-75.5-44.5v-19.9l92.8 54.8V521l80.7-56.4 7-111.7-74.7-37.5v-23.1l94.2 47.6-7.4 112.7 53.4-37.8 16.6 9.4-73.5 50.7-7 99.2 53.7-40z"/>
  <path fill="#fff" fill-rule="nonzero" d="M500.1 747.6v94l83.2-69 3.4-89.7-86.6 64.7zm179.5-138.2l-5.5 91.2-74.2 59.5 2.8-91.1 76.9-59.6zm86.8-65.6l-8.8 88.2-67.4 52.8 6.5-87.6 69.7-53.4zM593 417.2v113.6L500 597.3V476.4l-92.8-59.2 92.8-54.6 92.9 54.6zm187 7L769.8 522l-70 52.2 7-99.3 73.4-50.7zM698 353l-7 111.7-80.7 56.4V407.7l-92.8-54.8 85.4-47.7 20.4 10.2 74.6 37.5zm-74.7-60.6l94.2 47.6-7.4 112.7 72.7-51.5 11.8-108.8-96.7-42.5-74.6 42.5zm-140.5 60.6l-92.9 54.8-87.6-54.8 95-47.7 85.5 47.7zm-277.2-60.6l77.2 47.6 94.2-47.6-54.4-31-20.3-11.5-96.7 42.5zm193.5-9l83.7-42.6L408 201l-.8-.4-85.4 40.1 77.2 42.7zm188-93.5L512.2 151l-85.9 38.7 73.8 43 87-43z"/>
  <defs id="defs68">
    <filter id="filter3895" color-interpolation-filters="sRGB">
      <feFlood id="feFlood3885" flood-color="#000" flood-opacity=".4" result="flood"/>
      <feComposite id="feComposite3887" in="flood" in2="SourceGraphic" operator="in" result="composite1"/>
      <feGaussianBlur id="feGaussianBlur3889" in="composite1" result="blur" stdDeviation="10"/>
      <feOffset id="feOffset3891" dy="5" result="offset"/>
      <feComposite id="feComposite3893" in="SourceGraphic" in2="offset" result="composite2"/>
    </filter>
  </defs>
</svg>
