<?xml version="1.0" encoding="UTF-8" standalone="no"?><!DOCTYPE svg PUBLIC "-//W3C//DTD SVG 1.1//EN" "http://www.w3.org/Graphics/SVG/1.1/DTD/svg11.dtd"><svg width="100%" height="100%" viewBox="0 0 819 242" version="1.1" xmlns="http://www.w3.org/2000/svg" xmlns:xlink="http://www.w3.org/1999/xlink" xml:space="preserve" xmlns:serif="http://www.serif.com/" style="fill-rule:evenodd;clip-rule:evenodd;stroke-linecap:round;stroke-linejoin:round;stroke-miterlimit:1.5;"><g><path d="M470.783,217.929c6.536,0 11.842,5.306 11.842,11.841c0,6.536 -5.306,11.842 -11.842,11.842c-6.535,0 -11.841,-5.306 -11.841,-11.842c0,-6.535 5.306,-11.841 11.841,-11.841Zm-470.782,4.322c-0.001,-0.054 -0.001,-0.108 -0.001,-0.162c0,-6.535 5.306,-11.841 11.842,-11.841c6.535,0 11.841,5.306 11.841,11.841c0,6.536 -5.306,11.842 -11.841,11.842c-0.054,0 -0.108,0 -0.162,-0.001c-0.052,0.001 -0.105,0.001 -0.158,0.001c-6.359,0 -11.522,-5.163 -11.522,-11.522c0,-0.053 0,-0.105 0.001,-0.158Zm196.185,-12.003c6.536,0 11.842,5.306 11.842,11.841c0,6.536 -5.306,11.842 -11.842,11.842c-6.535,0 -11.841,-5.306 -11.841,-11.842c0,-6.535 5.306,-11.841 11.841,-11.841Zm-92.812,0c6.535,0 11.842,5.306 11.842,11.841c0,6.536 -5.307,11.842 -11.842,11.842c-6.536,0 -11.842,-5.306 -11.842,-11.842c0,-6.535 5.306,-11.841 11.842,-11.841Zm639.446,-12.162c6.536,0 11.842,5.306 11.842,11.842c0,6.535 -5.306,11.841 -11.842,11.841c-6.536,0 -11.842,-5.306 -11.842,-11.841c0,-6.536 5.306,-11.842 11.842,-11.842Zm-473.664,-14.722c6.536,0 11.842,5.306 11.842,11.842c0,6.535 -5.306,11.841 -11.842,11.841c-6.535,0 -11.841,-5.306 -11.841,-11.841c0,-6.536 5.306,-11.842 11.841,-11.842Zm126.737,-37.765c6.536,0 11.842,5.306 11.842,11.842c0,6.535 -5.306,11.841 -11.842,11.841c-6.535,0 -11.841,-5.306 -11.841,-11.841c0,-6.536 5.306,-11.842 11.841,-11.842Zm103.054,0c6.536,0 11.842,5.306 11.842,11.842c0,6.535 -5.306,11.841 -11.842,11.841c-6.535,0 -11.841,-5.306 -11.841,-11.841c0,-6.536 5.306,-11.842 11.841,-11.842Zm103.694,0c6.536,0 11.842,5.306 11.842,11.842c0,6.535 -5.306,11.841 -11.842,11.841c-6.535,0 -11.841,-5.306 -11.841,-11.841c0,-6.536 5.306,-11.842 11.841,-11.842Zm202.267,-26.243c6.536,0 11.842,5.306 11.842,11.841c0,6.536 -5.306,11.842 -11.842,11.842c-6.535,0 -11.841,-5.306 -11.841,-11.842c0,-6.535 5.306,-11.841 11.841,-11.841Z" style="fill:#404b65;"/><path d="M814.83,3.5l0,72.33l-72.33,0l0,134.098" style="fill:none;stroke:#404b65;stroke-width:7px;"/><path d="M804.908,131.197l-133.458,0l0,-72.65l-172.823,0" style="fill:none;stroke:#404b65;stroke-width:7px;"/><path d="M470.783,229.77l-134.098,0l0,-72.649l-140.819,0" style="fill:none;stroke:#404b65;stroke-width:7px;"/><path d="M78.411,3.5l0,94.733l-67.53,0l0,123.536" style="fill:none;stroke:#404b65;stroke-width:7px;"/><path d="M341.166,3.5l0,57.608l-72.81,0l0,132.338" style="fill:none;stroke:#404b65;stroke-width:7px;"/><path d="M128.657,3.5l0,94.733l67.209,0l0,123.536" style="fill:none;stroke:#404b65;stroke-width:7px;"/><path d="M103.374,3.5l-0.32,218.269" style="fill:none;stroke:#404b65;stroke-width:7px;"/><path d="M471.103,3.5l0,15.362l-74.89,0l0,136.979" style="fill:none;stroke:#404b65;stroke-width:7px;"/><path d="M526.791,3.5l0,15.362l75.53,0l0,136.979" style="fill:none;stroke:#404b65;stroke-width:7px;"/><path d="M498.627,3.5l-0.32,152.341" style="fill:none;stroke:#404b65;stroke-width:7px;"/></g></svg>