<svg xmlns="http://www.w3.org/2000/svg" fill-rule="evenodd" clip-rule="evenodd" viewBox="0 0 810 450">
  <path d="M0 0h810v450H0z"/>
  <path fill="#dfdee4" d="M0 371.5h810V412H0z"/>
  <text x="177.01" y="354.48" fill="#242238" font-family="'PTSans-Bold','PT Sans',sans-serif" font-size="24" font-weight="700" transform="translate(-9.23 46.66)">
    No<tspan x="205.38 216.66 228.85" y="354.48 354.48 354.48">vem</tspan>ber 29,<tspan x="319.33 325.41" y="354.48 354.48"> 2</tspan>018 | 5:30-7:00 PM | DMP<tspan x="604.72 610.79" y="354.48 354.48"> 1</tspan>01
  </text>
  <g transform="matrix(.44793 0 0 .44793 -91.5 21.9)">
    <clipPath id="a">
      <path d="M0 0h530v1005H0z"/>
    </clipPath>
    <g clip-path="url(#a)">
      <path fill="#fff" fill-rule="nonzero" d="M114 853c4-5 9-9 15-11l248-91 15-2c14 1 28 10 33 23 6 13 3 29-6 40-4 5-10 8-16 11l-179 65 45 31 104-73 2-1c6-4 14-6 21-6 21 2 40 22 36 45-2 9-7 18-16 24l-126 89a39.06 39.06 0 0 1-43 0l-126-89-3-2a39.04 39.04 0 0 1-13-36c1-7 4-12 9-17zm-3-309A313.18 313.18 0 0 1 0 300C0 134 119 0 265 0s265 134 265 300c0 100-44 189-111 244l-29 108c1.67-.1 3.33-.1 5 0h1l11 4c4 2 8 5 10 8a36.03 36.03 0 0 1 11 32l-3 8a37.02 37.02 0 0 1-22 22l-248 90c-15 5-32 0-42-11a39.12 39.12 0 0 1 1-50c4-5 9-8 15-11l46-16h-41c-16-3-29-16-32-32-2-16 6-33 21-40l11-4h6l-29-108z"/>
    </g>
  </g>
  <g fill="#fff" font-family="'CabinSketch-Bold','CabinSketch',sans-serif" font-size="72" font-weight="700">
    <text x="754.04" y="714.3" transform="translate(-511.2 -556.04)">
      SEM<tspan x="888.11 908.13" y="714.3 714.3">I-</tspan>ANNU<tspan x="1122.47 1163.01" y="714.3 714.3">AL</tspan>
    </text>
    <text x="684.1" y="779.1" transform="translate(-511.2 -556.04)">
      GENERAL M<tspan x="1041 1078.3" y="779.1 779.1">EE</tspan>TING
    </text>
  </g>
  <g fill="#fff" font-family="'PTSans-Regular','PT Sans',sans-serif" font-size="20">
    <text x="691.21" y="1708.48" transform="translate(-490.82 -1435.91)">
      C<tspan x="701.93 712.65" y="1708.48 1708.48">om</tspan>e ask<tspan x="771.71 777.05" y="1708.48 1708.48"> q</tspan>uestions or giv<tspan x="913.09 923.25" y="1708.48 1708.48">e </tspan>inputs about <tspan x="1041.09 1050.19 1060.91" y="1708.48 1708.48 1708.48">you</tspan>r student society!
    </text>
    <text x="754.43" y="1738.48" transform="translate(-490.82 -1435.91)">
      C<tspan x="765.51 776.29" y="1738.48 1738.48">ub</tspan>e redesign,<tspan x="878.87 884.21" y="1738.48 1738.48"> a</tspan>cademic<tspan x="964.13 969.47" y="1738.48 1738.48"> r</tspan>oles,<tspan x="1014.35 1019.69" y="1738.48 1738.48"> a</tspan>nd FREE FOOD
    </text>
  </g>
  <path fill="#fff" fill-rule="nonzero" d="M777.25 56.46v7.46l6.62-5.5.3-7.16-6.92 5.2zm-6.86-5.14l.3 7.17 6.56 5.43v-7.46l-6.86-5.14zm21.18-5.9l-.48 7.22-5.9 4.77.3-7.22 6.14-4.77h-.06zm-22.26 11.93l-5.85-4.71-.47-7.22 6.14 4.77.18 7.16zm29.12-17.19l-.65 7.05-5.37 4.17.47-6.92 5.55-4.3zm-36.22 11.28l-5.37-4.17-.66-7.05 5.55 4.3.48 6.92zm7.76-21.24l7.34-4.36 7.4 4.36v9.01l-7.4 5.31-7.34-5.31V30.2zm29.6.54l-.78 7.75-5.6 4.18.59-7.88 5.79-4.05zm-38.14 11.93l-5.55-4.18-.83-7.75 5.85 4.05.6 7.88h-.07zm31.63-17.6l-.6 8.89-6.38 4.47v-9l-7.34-4.36 6.74-3.82 7.64 3.82h-.06zm-5.97-4.78l5.97-3.4 7.7 3.34-.95 8.66L794 33l.6-8.95-7.46-3.82-.06.06zm-33.24-.06l7.7-3.4 1.61.9 4.3 2.44L760 24l.6 8.95-5.8-4.11-.95-8.6zm22.09 4.78l-7.4 4.35v8.95l-6.45-4.41-.6-8.9 7.58-3.81 6.87 3.94V25zm-6.69-5.55l-6.15-3.29 6.8-3.16 6.04 3.16-6.63 3.4-.06-.11zm14.92-7.4L778.2 9l-6.74 3.1 5.85 3.4 6.92-3.4-.06-.05z"/>
  <g transform="translate(22.42 11)">
    <clipPath id="b">
      <path d="M0 0h166v146H0z"/>
    </clipPath>
    <g clip-path="url(#b)">
      <path fill="#e2d505" fill-opacity=".75" fill-rule="nonzero" stroke="#fff" stroke-width="91" d="M2401 391c0-216-218-391-487-391s-487 175-487 391c0 105 53 206 147 279l3 207 221-107c38 7 77 11 116 11 269 0 487-175 487-390z" transform="matrix(-.15598 0 0 .14983 382 7)"/>
      <path fill-rule="nonzero" d="M70 106l4 2 5-1 7 1 1-1v-2a26 26 0 0 0-1-12l-12-1c-2-1-4 7-4 9v5zm3-2c0-5 5-4 9-6-2 3-6 3-6 6 2 0 6 0 8-2v2l-2 1-8 1-1-2zm12-5c0 2-3 4-6 3 1-1 4-4 6-3zm-6-4l-5 3c0-3 3-3 4-3h1zm5 1h1l-5 2h-1c0-2 3-3 5-2zM74 84l5 1h5l3 1 1-1v-4l1-9 1-15 5-21c1-5 1-11-1-12l-3-1-12 1c-1-1-2 0-2 1v2l-1 7-1 37-1 6v7zm4-2l6-3v-1h1l1 1-1 1h1c-1 3-2 3-4 3h-1l-3-1zm0-3c0-2 3-2 4-2h1c-2 1-3 3-5 3v-1zm0-3c2 0 3-1 5-3l-1 1 4-1v1c0 2-7 2-8 2zm1-4l6-1-6 4v-3zm8-6c0 3-3 5-7 5l7-5zm-8-1h6l-7 5 1-5zm-1-5s6-2 7-1c0 1-2 1-2 3 2 0 2-3 4-3v5h-6l1-1-1-1-2 2-1-4zm7-4l3-1v1c0 2-4 2-6 2l3-2zm-6-1c0-2 6-1 8-2l-8 4v-2zm1-7l5-1 1 1-7 4 1-4zm9-1h1c-1 5-4 6-8 5 1-2 5-3 7-5zm-10-3c0-1 4-2 5-1h3c-1 3-4 0-6 2 0 1 0 2-1 1h-1v-2zm11 0v2h-7c1 0 6-3 7-2zm-12-4l2-1 1 1c0 2-2 2-2 2l-1-2zm12 2l-5-1-1-1 1-1h-3c1-1 9-3 9-5h1v4l-1-1c-1 1-5 1-6 3v1l6-2 1 1-1 3-1-1zm-10-5l-1-2 4-2v1l3-2 3 2-8 4h-1l-2 1v-1l2-1zm6-10l1 1-4 3h-1l-4 1c1-5 4-5 8-5zm2 5l-2-1 5-2 1-1-6-2h-5v-1 1l6-1 6 2-1 1v4h-4z"/>
    </g>
  </g>
</svg>
