<svg xmlns="http://www.w3.org/2000/svg" viewBox="0 0 166 146">
  <path fill="#e2d505" fill-opacity=".75" stroke="#fff" stroke-width="91" d="M2401 391c0-216-218-391-487-391s-487 175-487 391c0 105 53 206 147 279l3 207 221-107c38 7 77 11 116 11 269 0 487-175 487-390z" transform="matrix(-.15598 0 0 .14983 382 7)"/>
  <path d="M70 106l4 2 5-1 7 1 1-1v-2a26 26 0 0 0-1-12l-12-1c-2-1-4 7-4 9v5zm3-2c0-5 5-4 9-6-2 3-6 3-6 6 2 0 6 0 8-2v2l-2 1-8 1-1-2zm12-5c0 2-3 4-6 3 1-1 4-4 6-3zm-6-4l-5 3c0-3 3-3 4-3h1zm5 1h1l-5 2h-1c0-2 3-3 5-2zM74 84l5 1h5l3 1 1-1v-4l1-9 1-15 5-21c1-5 1-11-1-12l-3-1-12 1c-1-1-2 0-2 1v2l-1 7-1 37-1 6v7zm4-2l6-3v-1h1l1 1-1 1h1c-1 3-2 3-4 3h-1l-3-1zm0-3c0-2 3-2 4-2h1c-2 1-3 3-5 3v-1zm0-3c2 0 3-1 5-3l-1 1 4-1v1c0 2-7 2-8 2zm1-4l6-1-6 4v-3zm8-6c0 3-3 5-7 5l7-5zm-8-1h6l-7 5 1-5zm-1-5s6-2 7-1c0 1-2 1-2 3 2 0 2-3 4-3v5h-5-1l1-1-1-1-2 2-1-4zm7-4l3-1v1c0 2-4 2-6 2l3-2zm-6-1c0-2 6-1 8-2l-8 4v-2zm1-7l5-1 1 1-7 4 1-4zm9-1h1c-1 5-4 6-8 5 1-2 5-3 7-5zm-10-3c0-1 4-2 5-1h3c-1 3-4 0-6 2 0 1 0 2-1 1h-1v-2zm11 0v2h-7c1 0 6-3 7-2zm-12-4l2-1 1 1c0 2-2 2-2 2l-1-2zm12 2l-5-1-1-1 1-1h-1-2c1-1 9-3 9-5h1v4l-1-1c-1 1-5 1-6 3v1l6-2 1 1-1 3-1-1zm-10-5l-1-2 4-2v1l3-2 3 2-8 4h-1l-2 1v-1l2-1zm6-10l1 1-4 3h-1l-4 1c1-5 4-5 8-5zm2 5l-2-1 5-2 1-1-6-2h-5v-1 1l6-1 6 2-1 1v4h-4z"/>
</svg>
