<svg xmlns="http://www.w3.org/2000/svg" version="1" viewBox="0 0 530 1005">
  <path fill="#fff" d="M114 853c4-5 9-9 15-11l248-91 15-2c14 1 28 10 33 23 6 13 3 29-6 40-4 5-10 8-16 11l-179 65 45 31 104-73 2-1c6-4 14-6 21-6 21 2 40 22 36 45-2 9-7 18-16 24l-126 89a39 39 0 0 1-43 0l-126-89-3-2a39 39 0 0 1-13-36c1-7 4-12 9-17zm-3-309A313 313 0 0 1 0 300C0 134 119 0 265 0s265 134 265 300c0 100-44 189-111 244l-29 108a45 45 0 0 1 5 0h1l11 4c4 2 8 5 10 8a36 36 0 0 1 11 32l-3 8a37 37 0 0 1-22 22l-248 90c-15 5-32 0-42-11a39 39 0 0 1 1-50c4-5 9-8 15-11l46-16h-41c-16-3-29-16-32-32-2-16 6-33 21-40l11-4h6l-29-108z"/>
</svg>
