<svg xmlns="http://www.w3.org/2000/svg" fill-rule="evenodd" stroke-linejoin="round" stroke-miterlimit="1.4" clip-rule="evenodd" viewBox="0 0 93 93">
  <path fill-rule="nonzero" d="M46.2 79.5V92l11.1-9.2.5-12-11.6 8.7zm-11.5-8.6l.5 12 11 9.1V79.5l-11.5-8.6zM70.2 61l-.8 12.1-9.9 8L60 69l10.3-8zM32.9 81l-9.8-7.9-.8-12.1 10.3 8 .3 12zm48.8-28.8l-1.1 11.8-9 7 .8-11.6 9.3-7.2zM21 71.1l-9-7-1.1-11.8 9.3 7.2.8 11.6zm13-35.6l12.3-7.3 12.4 7.3v15.1l-12.4 8.9L34 50.6V35.5zm49.6.9l-1.3 13-9.4 7 1-13.2 9.7-6.8zm-63.9 20l-9.3-7-1.4-13 9.8 6.8 1 13.2zm53-29.5l-1 14.9L61 49.3V34.2l-12.3-7.3 11.3-6.4 2.8 1.4 10 5zm-10-8l10-5.7 12.9 5.6-1.6 14.5-9.7 6.9 1-15-12.5-6.4zM7 18.8l12.9-5.7 2.7 1.5 7.2 4.1-12.5 6.4 1 15-9.7-6.9L7 18.8zm37 8l-12.4 7.3v15l-10.8-7.4-1-14.9 12.7-6.4L44 27zm-11.2-9.3L22.5 12l11.4-5.3L44 12l-11.1 5.7zm25-12.4L47.8 0 36.5 5.2l9.8 5.7 11.6-5.7z"/>
</svg>
