<svg xmlns="http://www.w3.org/2000/svg" fill-rule="evenodd" stroke-linejoin="round" stroke-miterlimit="1.41" clip-rule="evenodd" viewBox="0 0 93 93">
  <path fill-rule="nonzero" d="M79.99 51.05l1.74 1.29-9.3 7.11-.86 11.67-1.95-1.22.54-8.82-10.25 7.94-.37 12.14-2.09-1.66.34-8.62-11.55 8.62-11.54-8.62.33 8.62-2.08 1.66-.37-12.14-10.25-7.94.53 8.82-1.95 1.22-.86-11.67-9.3-7.12 1.75-1.28 7.15 5.33-.92-13.22-9.79-6.76 2.2-1.26 7.12 5.05-.98-15.02 12.55-6.35-7.25-4.12-.09-2.75 10.28 5.68 11.16-5.68-9.95-5.3 2.43 1.3v-2.8l9.83 5.75 11.59-5.74-.4 13.66-11.38 5.64-1.81-.89v1.8l-1.63.8-10.07-5.63-12.66 6.36.92 14.89 10.76 7.5V34.2l12.37-7.29v2.65l-10.06 5.92v12.39l-4.53 2.94 2.27 1.76v2.8l1.98-1.57 10.34 7.3v3.18l2.31-1.52 2.31 1.52v-3.19l10.34-7.3 1.99 1.57v-2.79l2.26-1.76-4.53-2.94V35.47l-10.05-5.93V26.9l12.36 7.3v15.1l10.76-7.51.93-14.89-9.96-5v-3.08l12.55 6.35-.98 15.02 7.13-5.05 2.2 1.26-9.8 6.76-.91 13.22 7.15-5.33z"/>
  <path d="M46.24 79.5v12.53l-11.08-9.2-.46-11.95 11.54 8.62zm-10.1 2.84l9.1 7.56V80l-9.46-7.07.37 9.41zm-3.56-13.32l.37 12.14-9.88-7.93-.74-12.15 10.25 7.94zm-8.54 3.7l7.84 6.3-.29-9.5-8.13-6.3.58 9.5zm-3.99-13.27l.86 11.67-8.98-7.03-1.17-11.76 9.3 7.12zm-7.17 4.11l6.87 5.38-.66-8.97-7.11-5.44.9 9.03zm33.36-20.2v16.1L33.87 50.6V35.47l12.37 7.88zm-11.37 6.73l10.37 7.43V43.9l-10.37-6.6v12.79zm-16.14-6.93l.92 13.22-9.32-6.95-1.4-13.03 9.8 6.76zm-7.46 5.73l7.23 5.39-.74-10.57-7.6-5.25 1.11 10.43zm20.3-14.7v15.1L20.8 41.8l-.92-14.89 11.68 7.3zm-9.8 7.05l8.8 6.14V34.75L21 28.78l.77 12.46zm-4.49-16.07l.99 15.02-9.7-6.88L7 18.81l10.28 6.36zm-7.76 7.59l7.61 5.4-.81-12.4-8.1-5.02 1.3 12.02z"/>
  <path d="M57.32 82.83l-11.08 9.2V79.5l11.54-8.61-.46 11.95zM47.24 80v9.9l9.1-7.56.36-9.4L47.24 80zm22.18-6.77l-9.88 7.93.37-12.14 10.25-7.94-.74 12.15zm-8.53-3.71l-.29 9.5 7.85-6.3.58-9.5-8.14 6.3zm19.67-5.43l-8.99 7.03.86-11.67 9.3-7.11-1.17 11.75zm-7.16-4.12l-.66 8.97 6.87-5.38.9-9.03-7.11 5.44zm-14.78-24.5V50.6l-12.38 8.87V43.36l-12.37-7.89 12.37-7.28 12.38 7.28zm-22.84.04l11.46 7.3v14.71l10.38-7.43V36.04l-11.38-6.7-10.46 6.17zm47.77.9l-1.39 13.02-9.32 6.95.92-13.22 9.79-6.76zm-8.83 7.3L74 54.28l7.22-5.4 1.11-10.42-7.6 5.25zM62.65 21.9l9.95 4.99-.92 14.89-10.76 7.5V34.2L48.56 26.9l11.38-6.36 2.71 1.36zm-12.09 5.01l11.36 6.7v13.76l8.8-6.14.85-13.74-9.37-4.7-2.23-1.12-9.4 5.24zm34.93-8.1l-1.57 14.5-9.7 6.87.98-15.02-12.55-6.35 9.95-5.65 12.89 5.65zm-20.72-.05l11.48 5.8-.9 13.59 7.62-5.4 1.44-13.32-11.75-5.16-7.9 4.49zM43.93 26.9l-12.37 7.3-11.68-7.3 12.66-6.36 11.4 6.36zm-22 .1l9.65 6.03 10.34-6.1-9.4-5.25L21.92 27zm.65-12.3l7.25 4.12-12.55 6.35L7 18.82l12.88-5.65 2.7 1.53zM9.15 18.97l8.18 5.06 10.39-5.26-5.63-3.2-2.27-1.29-10.67 4.69zM33.98 6.66l9.95 5.29-11.16 5.68-10.28-5.68L33.87 6.6l.11.06zm-9.29 5.36l8.1 4.48 8.98-4.57-7.93-4.22-9.15 4.31zm33.14-6.86L46.24 10.9l-9.83-5.74L47.86 0l9.97 5.16zm-19.24.11l7.7 4.5 9.33-4.63-7.8-4.03-9.23 4.16z"/>
</svg>
