<svg xmlns="http://www.w3.org/2000/svg" fill-rule="evenodd" stroke-linejoin="round" stroke-miterlimit="1.41" clip-rule="evenodd" viewBox="0 0 95 95">
  <path fill="#08339a" fill-rule="nonzero" d="M35.7 71.88l.46 11.95 11.08 9.2V80.5L35.7 71.88zm-1.75 10.28l-9.88-7.93-.74-12.15 10.25 7.94.37 12.14zM21.9 72.12l-8.98-7.03-1.17-11.76 9.3 7.12.85 11.67zm-1.26-14.74l-9.33-6.95L9.94 37.4l9.79 6.76.92 13.22zm26.6-13.03v16.12L34.86 51.6V36.47l12.37 7.88zM32.55 35.2v15.1L21.8 42.78l-.92-14.89 11.68 7.3zM9.57 34.3l9.7 6.88-.99-15.02L8 19.82l1.57 14.5z"/>
  <path fill="#498df8" fill-rule="nonzero" d="M80.99 52.05l1.74 1.29-9.3 7.11-.86 11.67-1.95-1.22.54-8.82-10.25 7.94-.37 12.14-2.09-1.66.34-8.62-11.55 8.62-11.54-8.62.33 8.62-2.08 1.66-.37-12.14-10.25-7.94.53 8.82-1.95 1.22-.86-11.67-9.3-7.12 1.75-1.28 7.15 5.33-.92-13.22-9.79-6.76 2.2-1.26 7.12 5.05-.98-15.02 12.55-6.35-7.25-4.12-.09-2.75 10.28 5.68 11.16-5.68-9.95-5.3 2.43 1.3v-2.8l9.83 5.75 11.59-5.74-.4 13.66-11.38 5.64-1.81-.89v1.8l-1.63.8-10.07-5.63-12.66 6.36.92 14.89 10.76 7.5V35.2l12.37-7.29v2.65l-10.06 5.92v12.39l-4.53 2.94 2.27 1.76v2.8l1.98-1.57 10.34 7.3v3.18l2.31-1.52 2.31 1.52v-3.19l10.34-7.3 1.99 1.57v-2.79l2.26-1.76-4.53-2.94V36.47l-10.05-5.93V27.9l12.36 7.3v15.1l10.76-7.51.93-14.89-9.96-5v-3.08l12.55 6.35-.98 15.02 7.13-5.05 2.2 1.26-9.8 6.76-.91 13.22 7.15-5.33z"/>
  <path fill="#fff" fill-rule="nonzero" d="M47.24 80.5v12.53l11.08-9.2.46-11.95-11.54 8.62zm23.92-18.42l-.74 12.15-9.88 7.93.37-12.14 10.25-7.94zm11.57-8.74l-1.17 11.75-8.99 7.03.86-11.67 9.3-7.11zM59.62 36.47V51.6l-12.38 8.87V44.36l-12.37-7.89 12.37-7.28 12.38 7.28zm24.93.93l-1.39 13.03-9.32 6.95.92-13.22 9.79-6.76zM73.6 27.9l-.92 14.89-10.76 7.5V35.2L49.56 27.9l11.38-6.36 2.71 1.36 9.96 5zm-9.95-8.08l12.55 6.35-.98 15.02 9.7-6.87 1.57-14.5-12.89-5.65-9.95 5.65zM44.93 27.9l-12.37 7.3-11.68-7.3 12.66-6.36 11.4 6.36zM8 19.82l10.28 6.35 12.55-6.35-7.25-4.12-2.7-1.53L8 19.82zm25.77-1.19l11.16-5.68-9.95-5.3-.11-.05-11.38 5.35 10.28 5.68zM58.83 6.16L48.86 1 37.4 6.16l9.83 5.74 11.59-5.74z"/>
  <path fill="#212121" d="M48.97.05l.17.03.16.07 9.97 5.16.15.1.12.11.1.15.09.15.04.17.02.18v.02l-.41 13.66-.02.17-.05.16-.08.16-.1.13-.14.12-.14.09-11.38 5.64-.16.06-.17.03h-.18l-.17-.03-.16-.06-.44-.21v.25l-.01.18-.05.17-.08.16-.1.14-.14.12-.15.09-.04.02.06.06.1.15.07.17.03.18v1.07l.88-.51.15-.07.16-.05.17-.01.17.01.17.05.15.07.87.51v-.97l.01-.17.05-.16.07-.16.1-.13.12-.12.14-.1 11.39-6.35.17-.08.18-.04h.19l.18.03.17.07 1.32.66v-1.53l.02-.17.04-.16.07-.15.1-.14.12-.12.14-.1 9.95-5.65.16-.07.18-.04.17-.01.18.02.17.06 12.88 5.65.15.09.14.1.1.14.1.15.05.16.03.17v.17l-1.57 14.5-.03.16-.06.15-.08.14-.1.12-.13.1-1.35.96.9.52.15.1.12.13.1.14.07.16.04.17v.24L84.1 50.52l-.03.15-.05.15-.08.14-.1.12-.12.1-1.14.85.7.52.09.07.12.13.1.15.05.17.04.17v.18L82.5 65.18l-.02.15-.06.15-.07.14-.1.12-.1.1-9 7.04-.14.09-.16.07-.17.03h-.17l-.17-.02-.17-.06-.15-.08-.13-.11.07.07-.49-.3-.1 1.72-.03.15-.05.16-.07.14-.1.12-.11.11-9.88 7.94-.15.1-.17.07-.17.03h-.18l-.18-.02-.16-.07-.16-.09-.03-.02-.6-.48-.06 1.43-.02.16-.05.16-.07.14-.09.13-.11.11-11.08 9.2-.15.1-.16.08-.17.04h-.18l-.18-.01-.16-.06-.16-.09-.13-.11.03.03-11.05-9.18-.11-.11-.1-.13-.07-.14-.04-.16-.02-.16-.06-1.43-.6.48-.14.09-.15.07-.15.04h-.32l-.16-.05-.15-.06-.13-.1-9.88-7.93-.12-.1-.1-.13-.07-.14-.05-.16-.02-.15-.1-1.72-.59.36-.03.02-.02.02-.06.02-.05.02-.03.01-.03.02h-.06l-.05.02h-.04l-.03.01H21.73l-.04-.02h-.04l-.04-.02-.05-.02-.04-.02-.04-.01-.03-.03-.05-.02-.04-.03-.03-.02-.01-.01-8.98-7.03-.12-.1-.1-.12-.07-.14-.05-.15-.03-.15-1.17-11.75v-.19l.01-.04v-.04l.02-.05v-.05l.02-.04.01-.03.02-.04.03-.06.02-.04.01-.02.03-.04.04-.05.03-.03.01-.02.03-.03.06-.06.03-.02.01-.01h.01l.7-.52-1.14-.85-.12-.1-.1-.13-.07-.14-.06-.15-.03-.15L9 37.5v-.18l.03-.18.06-.17.1-.15.12-.14.15-.1.01-.01.9-.52-1.34-.95-.13-.1-.1-.13-.08-.14-.06-.15-.03-.16-1.57-14.49v-.26l.02-.08v-.02l.03-.08.03-.06v-.03l.05-.07.03-.05.01-.01.01-.02.05-.06.04-.04.01-.01.02-.02.06-.05.04-.04h.02l.02-.02.07-.04.04-.02h.02l.02-.02h.01l12.85-5.64.16-.06.18-.02h.18l.17.05.16.07 1.22.7-.03-1.07v-.01l.01-.18.05-.17.09-.16.1-.15.14-.12.16-.09 11.37-5.35.17-.06.17-.03h.18l.17.04.16.07.12.06 1.02.54V6.18l.01-.2.06-.17.08-.17.11-.14.14-.12.16-.1L48.46.14l.17-.06.17-.02h.17zM37.4 6.15V8.95l-2.42-1.28-.12-.06-11.38 5.35.1 2.75-2.7-1.53L8 19.82l1.57 14.5 2.57 1.82-2.2 1.26 1.38 13.03 2.18 1.62-1.74 1.28 1.17 11.76 8.98 7.03 1.95-1.22.2 3.33 9.89 7.93 2.08-1.66.13 3.33 11.08 9.2 11.08-9.2.13-3.33 2.09 1.66 9.88-7.93.2-3.33 1.95 1.22 9-7.03 1.16-11.75-1.74-1.3-.7.53 2.87-2.14 1.39-13.03-2.2-1.26 2.57-1.82 1.57-14.5-12.88-5.65-9.96 5.65v3.08l-2.7-1.36-11.4 6.36v2.64l-2.3-1.35-2.32 1.36V27.9l-1.31-.73 1.62-.8v-1.8l1.81.9 11.37-5.65.4-13.66L48.87 1 37.4 6.16zM34.87 51.6l12.37 8.87 12.38-8.87v-2.74l4.52 2.94-2.26 1.76v2.8l-1.99-1.57-10.34 7.3v3.18l-2.3-1.52-2.32 1.52v-3.19l-10.34-7.3-1.98 1.57v-2.79l-2.26-1.76 4.52-2.94v2.74zm-2.88.27l1.2.94.13.12.1.14.08.15.05.17.02.17v.82l.43-.35.15-.1.16-.06.17-.03h.17l.18.02.16.06.15.08 10.35 7.3.13.12.12.14.08.17.05.17.02.18v1.41l.83-.54.16-.09.18-.05.18-.02.19.02.18.05.16.09.83.54v-1.4l.01-.19.05-.17.09-.17.11-.14.14-.12L59.34 54l.15-.08.17-.06.17-.03h.18l.17.04.16.07.15.1.43.34v-.82l.02-.17.05-.17.07-.15.1-.14.13-.12 1.2-.94-1.92-1.25v.98l-.01.18-.05.18-.09.16-.11.14-.14.12-12.37 8.87-.14.08-.16.06-.17.03h-.16L47 61.4l-.16-.05-.14-.09-.13-.1.05.05-12.3-8.82-.14-.12-.12-.14-.08-.16-.05-.18-.02-.18v-.98L32 51.87zM7.05 19.92z"/>
</svg>
