<svg xmlns="http://www.w3.org/2000/svg" fill-rule="evenodd" stroke-linejoin="round" stroke-miterlimit="1.41" clip-rule="evenodd" viewBox="0 0 476 44">
  <path fill="#212121" fill-rule="nonzero" d="M72.56 36c4.6 0 8.52-1.64 11.12-4.68l-3.36-3.2a9.73 9.73 0 0 1-7.48 3.32c-5.8 0-10-4.08-10-9.84s4.2-9.84 10-9.84a9.83 9.83 0 0 1 7.48 3.28l3.36-3.16C81.08 8.84 77.16 7.2 72.6 7.2c-8.6 0-15 6.04-15 14.4S64 36 72.56 36zm74.96 0c7.68 0 11.31-3.84 11.31-8.32 0-10.27-16.6-6.4-16.6-12.36 0-2.12 1.77-3.8 6.09-3.8 2.44 0 5.2.72 7.72 2.2l1.64-4.04c-2.44-1.6-5.96-2.48-9.32-2.48-7.68 0-11.28 3.84-11.28 8.36 0 10.4 16.64 6.44 16.64 12.48 0 2.08-1.84 3.64-6.2 3.64-3.44 0-7-1.28-9.24-3.08l-1.8 4.04c2.32 2 6.68 3.36 11.04 3.36zM97.2 36c7.68 0 11.31-3.84 11.31-8.32 0-10.27-16.6-6.4-16.6-12.36 0-2.12 1.77-3.8 6.09-3.8 2.44 0 5.2.72 7.72 2.2l1.64-4.04c-2.44-1.6-5.96-2.48-9.32-2.48-7.68 0-11.28 3.84-11.28 8.36 0 10.4 16.64 6.44 16.64 12.48 0 2.08-1.84 3.64-6.2 3.64-3.44 0-7-1.28-9.24-3.08l-1.8 4.04c2.32 2 6.67 3.36 11.04 3.36zm25.16 0c7.68 0 11.31-3.84 11.31-8.32 0-10.27-16.6-6.4-16.6-12.36 0-2.12 1.77-3.8 6.09-3.8 2.44 0 5.2.72 7.72 2.2l1.64-4.04c-2.44-1.6-5.96-2.48-9.32-2.48-7.68 0-11.28 3.84-11.28 8.36 0 10.4 16.64 6.44 16.64 12.48 0 2.08-1.84 3.64-6.2 3.64-3.44 0-7-1.28-9.24-3.08l-1.8 4.04c2.32 2 6.67 3.36 11.04 3.36zM282.06 5.19c-.67 0-1.17.5-1.17 1.13 0 .63.5 1.12 1.17 1.12.68 0 1.17-.5 1.17-1.15 0-.62-.5-1.1-1.17-1.1zm161.57 0c-.67 0-1.17.5-1.17 1.13 0 .63.5 1.12 1.17 1.12.68 0 1.17-.5 1.17-1.15 0-.62-.5-1.1-1.17-1.1zm-72.16.27v5.25a4.07 4.07 0 0 0-3.34-1.53 4.63 4.63 0 0 0-4.82 4.86 4.64 4.64 0 0 0 4.82 4.88c1.4 0 2.63-.54 3.4-1.62v1.51h1.66V5.46h-1.72zM231.79 7.19v2.08h-1.62v1.42h1.62v5.24c0 1.93 1.1 2.99 3.02 2.99.77 0 1.56-.22 2.09-.66l-.54-1.25c-.36.3-.85.45-1.35.45-.96 0-1.5-.57-1.5-1.6V10.7h2.74V9.27h-2.74V7.2h-1.72zm113.02 0v2.08h-1.62v1.42h1.62v5.24c0 1.93 1.1 2.99 3.02 2.99.77 0 1.57-.22 2.09-.66l-.54-1.25c-.36.3-.85.45-1.35.45-.96 0-1.5-.57-1.5-1.6V10.7h2.74V9.27h-2.74V7.2h-1.72zm55.19 0v2.08h-1.62v1.42H400v5.24c0 1.93 1.1 2.99 3.02 2.99.77 0 1.56-.22 2.09-.66l-.54-1.25c-.36.3-.85.45-1.35.45-.96 0-1.5-.57-1.5-1.6V10.7h2.74V9.27h-2.74V7.2H400zm59.05 0v2.08h-1.62v1.42h1.62v5.24c0 1.93 1.1 2.99 3.03 2.99.77 0 1.56-.22 2.08-.66l-.54-1.25c-.36.3-.84.45-1.35.45-.95 0-1.5-.57-1.5-1.6V10.7h2.75V9.27h-2.74V7.2h-1.73zm-288.41 2c-2.94 0-5.04 2-5.04 4.85 0 2.85 2.1 4.88 5.04 4.88 1.7 0 3.13-.72 3.89-2.05l-1.32-.83a2.98 2.98 0 0 1-2.6 1.37c-1.86 0-3.27-1.3-3.27-3.37 0-2.03 1.4-3.35 3.28-3.35 1.04 0 1.98.44 2.6 1.37l1.3-.84c-.75-1.33-2.17-2.04-3.88-2.04zm10.06 0c-2.86 0-4.97 2-4.97 4.85 0 2.85 2.1 4.88 4.97 4.88a4.74 4.74 0 0 0 4.95-4.88 4.73 4.73 0 0 0-4.95-4.86zm12.3 0c-1.45 0-2.62.53-3.3 1.5V9.27h-1.65v9.54h1.72V13.9c0-2.07 1.14-3.17 2.86-3.17 1.57 0 2.47.92 2.47 2.79v5.3h1.73V13.9c0-2.07 1.13-3.17 2.86-3.17 1.57 0 2.47.92 2.47 2.79v5.3h1.72v-5.5c0-2.8-1.58-4.14-3.9-4.14a4.3 4.3 0 0 0-3.67 1.77c-.63-1.2-1.86-1.77-3.32-1.77zm19.13 0c-1.4 0-2.63.53-3.4 1.6V9.26h-1.66V22.3h1.73v-4.93a4.07 4.07 0 0 0 3.33 1.55c2.79 0 4.82-1.94 4.82-4.88a4.63 4.63 0 0 0-4.82-4.86zm30.44 0a4.67 4.67 0 0 0-4.8 4.85c0 2.85 2.06 4.88 5.14 4.88a4.8 4.8 0 0 0 3.76-1.55l-.95-1.11a3.56 3.56 0 0 1-2.76 1.15c-1.89 0-3.24-1.12-3.45-2.8h7.74l.03-.51c0-2.94-1.96-4.92-4.71-4.92zm12.24 0c-1.68 0-2.87.57-3.48 1.68v-1.6h-1.65v9.54h1.72v-4.75c0-2.09 1.16-3.22 3.01-3.22.13 0 .25 0 .4.02V9.18zm10.17 0c-2.45 0-3.98 1.14-3.98 2.86 0 3.8 6.03 1.94 6.03 4.08 0 .81-.67 1.3-2.27 1.3a6.14 6.14 0 0 1-3.35-1l-.72 1.37c.8.63 2.36 1.12 3.94 1.12 2.54 0 4.13-1.1 4.13-2.82 0-3.71-6.05-1.87-6.05-4.13 0-.75.74-1.31 2.25-1.31.93 0 1.89.2 2.75.75l.74-1.36a6.94 6.94 0 0 0-3.47-.87zm10.1 0c-2.94 0-5.04 2-5.04 4.85 0 2.85 2.1 4.88 5.03 4.88 1.71 0 3.14-.72 3.9-2.05l-1.32-.83a2.97 2.97 0 0 1-2.6 1.37c-1.87 0-3.27-1.3-3.27-3.37 0-2.03 1.4-3.35 3.28-3.35 1.04 0 1.98.44 2.59 1.37l1.31-.84c-.75-1.33-2.18-2.04-3.89-2.04zm15.04 0a4.67 4.67 0 0 0-4.78 4.85c0 2.85 2.05 4.88 5.12 4.88 1.59 0 2.9-.54 3.77-1.55l-.96-1.11a3.56 3.56 0 0 1-2.75 1.15c-1.9 0-3.24-1.12-3.46-2.8h7.74c.02-.15.04-.37.04-.51 0-2.94-1.96-4.92-4.72-4.92zm12.2 0c-1.5 0-2.73.55-3.43 1.52V9.27h-1.66v9.54h1.73V13.9c0-2.07 1.19-3.17 3.02-3.17 1.64 0 2.58.92 2.58 2.79v5.3h1.73v-5.5c0-2.8-1.64-4.14-3.96-4.14zm11.38 0c-2.93 0-5.04 2-5.04 4.85 0 2.85 2.1 4.88 5.04 4.88 1.71 0 3.13-.72 3.89-2.05l-1.31-.83a2.97 2.97 0 0 1-2.6 1.37c-1.87 0-3.27-1.3-3.27-3.37 0-2.03 1.4-3.35 3.27-3.35 1.05 0 1.98.44 2.6 1.37l1.31-.84c-.76-1.33-2.18-2.04-3.89-2.04zm9.89 0a4.67 4.67 0 0 0-4.8 4.85c0 2.85 2.06 4.88 5.14 4.88 1.58 0 2.9-.54 3.76-1.55l-.95-1.11a3.56 3.56 0 0 1-2.76 1.15c-1.9 0-3.24-1.12-3.46-2.8h7.74c.02-.15.04-.37.04-.51 0-2.94-1.96-4.92-4.71-4.92zm15.03 0c-2.45 0-3.98 1.14-3.98 2.86 0 3.8 6.03 1.94 6.03 4.08 0 .81-.67 1.3-2.27 1.3a6.13 6.13 0 0 1-3.35-1l-.72 1.37c.8.63 2.36 1.12 3.94 1.12 2.54 0 4.12-1.1 4.12-2.82 0-3.71-6.04-1.87-6.04-4.13 0-.75.73-1.31 2.25-1.31.93 0 1.89.2 2.75.75l.74-1.36a6.94 6.94 0 0 0-3.47-.87zm41.75 0a4.67 4.67 0 0 0-4.78 4.85c0 2.85 2.05 4.88 5.13 4.88 1.58 0 2.9-.54 3.76-1.55l-.95-1.11a3.56 3.56 0 0 1-2.76 1.15c-1.89 0-3.24-1.12-3.46-2.8h7.74c.02-.15.04-.37.04-.51 0-2.94-1.96-4.92-4.71-4.92zm12.2 0c-1.5 0-2.73.55-3.43 1.52V9.27h-1.65v9.54h1.72V13.9c0-2.07 1.19-3.17 3.03-3.17 1.64 0 2.57.92 2.57 2.79v5.3h1.73v-5.5c0-2.8-1.64-4.14-3.96-4.14zm22.55 0c-2.45 0-3.98 1.14-3.98 2.86 0 3.8 6.03 1.94 6.03 4.08 0 .81-.67 1.3-2.27 1.3a6.13 6.13 0 0 1-3.35-1l-.72 1.37c.8.63 2.36 1.12 3.94 1.12 2.54 0 4.12-1.1 4.12-2.82 0-3.71-6.04-1.87-6.04-4.13 0-.75.73-1.31 2.25-1.31.93 0 1.89.2 2.75.75l.74-1.36a6.94 6.94 0 0 0-3.47-.87zm10.02 0c-2.86 0-4.97 2-4.97 4.85 0 2.85 2.1 4.88 4.97 4.88a4.74 4.74 0 0 0 4.95-4.88 4.73 4.73 0 0 0-4.95-4.86zm11.5 0c-2.93 0-5.04 2-5.04 4.85 0 2.85 2.1 4.88 5.04 4.88 1.71 0 3.13-.72 3.89-2.05l-1.31-.83a2.98 2.98 0 0 1-2.6 1.37c-1.87 0-3.27-1.3-3.27-3.37 0-2.03 1.4-3.35 3.27-3.35 1.05 0 1.98.44 2.6 1.37l1.3-.84c-.75-1.33-2.17-2.04-3.88-2.04zm15.05 0a4.67 4.67 0 0 0-4.79 4.85c0 2.85 2.05 4.88 5.13 4.88 1.59 0 2.9-.54 3.76-1.55l-.95-1.11a3.56 3.56 0 0 1-2.75 1.15c-1.9 0-3.24-1.12-3.46-2.8h7.74c.02-.15.04-.37.04-.51 0-2.94-1.96-4.92-4.72-4.92zm-232.43.08v5.5c0 2.8 1.63 4.15 4.1 4.15 1.35 0 2.54-.56 3.24-1.55v1.44h1.64V9.27h-1.73v4.94c0 2.05-1.15 3.16-2.95 3.16-1.64 0-2.58-.93-2.58-2.8v-5.3h-1.72zm61.94 0v9.54h1.72V9.27h-1.72zm70.72 0v5.5c0 2.8 1.63 4.15 4.1 4.15 1.35 0 2.54-.56 3.24-1.55v1.44h1.64V9.27h-1.73v4.94c0 2.05-1.15 3.16-2.95 3.16-1.64 0-2.58-.93-2.58-2.8v-5.3h-1.72zm90.84 0v9.54h1.73V9.27h-1.73zm21.64 0l4.21 9.53-.3.66c-.47 1.1-1 1.48-1.82 1.48-.65 0-1.24-.25-1.71-.7l-.74 1.3c.6.57 1.53.87 2.45.87 1.45 0 2.55-.63 3.4-2.64l4.62-10.5h-1.69l-3.3 7.64-3.32-7.64h-1.8zm-221.83 1.37a2.98 2.98 0 0 1 3.06 2.74h-6.12a2.97 2.97 0 0 1 3.06-2.74zm47.55 0a2.98 2.98 0 0 1 3.06 2.74h-6.12a2.97 2.97 0 0 1 3.06-2.74zm33.47 0a2.98 2.98 0 0 1 3.06 2.74h-6.13a2.98 2.98 0 0 1 3.07-2.74zm56.79 0a2.98 2.98 0 0 1 3.06 2.74h-6.13a2.97 2.97 0 0 1 3.06-2.74zm71.31 0a2.98 2.98 0 0 1 3.06 2.74h-6.12a2.97 2.97 0 0 1 3.06-2.74zm-270.99.05c1.84 0 3.2 1.32 3.2 3.35 0 2.04-1.36 3.37-3.2 3.37s-3.22-1.33-3.22-3.37c0-2.03 1.38-3.35 3.22-3.35zm31.28 0c1.84 0 3.23 1.34 3.23 3.35 0 2.04-1.39 3.37-3.23 3.37-1.81 0-3.2-1.33-3.2-3.37 0-2.01 1.39-3.35 3.2-3.35zm156.3 0c1.82 0 3.2 1.32 3.2 3.35 0 2.04-1.38 3.37-3.2 3.37-1.84 0-3.22-1.33-3.22-3.37 0-2.03 1.38-3.35 3.22-3.35zm56.86 0c1.84 0 3.2 1.32 3.2 3.35 0 2.04-1.36 3.37-3.2 3.37s-3.22-1.33-3.22-3.37c0-2.03 1.38-3.35 3.22-3.35z"/>
  <path fill="gray" fill-rule="nonzero" d="M176.51 22.41v11.87h1.47v-1.34a3.59 3.59 0 0 0 3.03 1.44 4.13 4.13 0 0 0 4.28-4.34c0-2.59-1.8-4.32-4.28-4.32-1.2 0-2.26.45-2.96 1.36v-4.67h-1.54zm14.6 3.31c-2.6 0-4.47 1.8-4.47 4.32 0 2.53 1.87 4.34 4.48 4.34 1.52 0 2.78-.64 3.45-1.82l-1.16-.74a2.64 2.64 0 0 1-2.3 1.22c-1.67 0-2.92-1.16-2.92-3 0-1.8 1.25-2.97 2.91-2.97.93 0 1.76.38 2.3 1.21l1.17-.75c-.67-1.18-1.93-1.8-3.45-1.8zm9.02 0c-2.61 0-4.48 1.8-4.48 4.32 0 2.53 1.87 4.34 4.48 4.34 1.52 0 2.78-.64 3.45-1.82l-1.17-.74a2.64 2.64 0 0 1-2.3 1.22c-1.66 0-2.91-1.16-2.91-3 0-1.8 1.25-2.97 2.9-2.97.94 0 1.77.38 2.31 1.21l1.17-.75c-.67-1.18-1.93-1.8-3.45-1.8zm8.17 0c-2.17 0-3.53 1.03-3.53 2.55 0 3.37 5.36 1.73 5.36 3.63 0 .72-.6 1.15-2.02 1.15-1.1 0-2.25-.37-2.97-.88l-.64 1.22c.7.56 2.09.99 3.5.99 2.26 0 3.66-.98 3.66-2.51 0-3.3-5.37-1.66-5.37-3.67 0-.67.65-1.17 2-1.17.83 0 1.68.18 2.44.68l.66-1.22a6.16 6.16 0 0 0-3.09-.77zm8.02 0c-2.18 0-3.54 1.03-3.54 2.55 0 3.37 5.36 1.73 5.36 3.63 0 .72-.59 1.15-2.01 1.15-1.1 0-2.26-.37-2.98-.88l-.64 1.22c.7.56 2.1.99 3.5.99 2.26 0 3.67-.98 3.67-2.51 0-3.3-5.38-1.66-5.38-3.67 0-.67.66-1.17 2-1.17.83 0 1.68.18 2.45.68l.66-1.22a6.16 6.16 0 0 0-3.1-.77zm8.02 0c-2.18 0-3.54 1.03-3.54 2.55 0 3.37 5.36 1.73 5.36 3.63 0 .72-.6 1.15-2.02 1.15-1.1 0-2.25-.37-2.97-.88l-.64 1.22c.7.56 2.1.99 3.5.99 2.26 0 3.66-.98 3.66-2.51 0-3.3-5.37-1.66-5.37-3.67 0-.67.65-1.17 2-1.17.83 0 1.68.18 2.45.68l.65-1.22a6.16 6.16 0 0 0-3.08-.77zm12.35 0c-2.55 0-4.42 1.8-4.42 4.32a4.23 4.23 0 0 0 4.42 4.34c2.54 0 4.4-1.8 4.4-4.34a4.2 4.2 0 0 0-4.4-4.32zm11.08 0c-1.48 0-2.54.52-3.08 1.5V25.8h-1.47v8.48h1.53v-4.22c0-1.86 1.02-2.87 2.67-2.87.11 0 .23 0 .35.02v-1.49zm5.33 0c-2.45 0-4.3 1.65-4.3 4.1 0 2.45 1.85 4.11 4.3 4.11 1.22 0 2.32-.43 3.06-1.31v.67c0 1.92-.91 2.85-2.91 2.85a5.18 5.18 0 0 1-3.27-1.1l-.73 1.18c.92.83 2.5 1.26 4.04 1.26 2.89 0 4.4-1.36 4.4-4.35V25.8h-1.45v1.31a3.87 3.87 0 0 0-3.14-1.39zm-87.5.08v4.88c0 2.5 1.45 3.7 3.65 3.7 1.2 0 2.25-.5 2.88-1.38v1.28h1.45V25.8h-1.53v4.39c0 1.82-1.03 2.81-2.63 2.81-1.45 0-2.29-.83-2.29-2.5v-4.7h-1.53zm15.28 1.27c1.63 0 2.86 1.16 2.86 2.97 0 1.81-1.23 3-2.86 3-1.62 0-2.85-1.19-2.85-3 0-1.8 1.23-2.97 2.85-2.97zm55.8 0c1.64 0 2.86 1.16 2.86 2.97 0 1.81-1.22 3-2.85 3-1.64 0-2.87-1.19-2.87-3 0-1.8 1.23-2.97 2.87-2.97zm16.6 0c1.7 0 2.91 1.1 2.91 2.75 0 1.63-1.21 2.77-2.91 2.77-1.71 0-2.93-1.14-2.93-2.77 0-1.65 1.22-2.75 2.93-2.75zm-23.3 5.12c-.59 0-1.08.45-1.08 1.09 0 .63.5 1.1 1.08 1.1.58 0 1.06-.47 1.06-1.1 0-.64-.48-1.1-1.06-1.1z"/>
  <path fill="#08339a" fill-rule="nonzero" d="M16.12 32.92l.21 5.55 5.15 4.28v-5.82l-5.36-4zm-.82 4.78l-4.59-3.68-.34-5.65 4.76 3.69.17 5.64zm-5.59-4.66l-4.17-3.27L5 24.3l4.31 3.3.4 5.43zm-.58-6.85L4.8 22.96l-.65-6.05 4.55 3.14.43 6.14zm12.35-6.05v7.48l-5.75-4.11v-7.03l5.75 3.66zm-6.82-4.26v7.02l-5-3.49-.42-6.91 5.42 3.38zm-10.68-.4l4.5 3.19-.45-6.98-4.78-2.95.73 6.73z"/>
  <path fill="#498df8" fill-rule="nonzero" d="M37.16 23.71l.8.6-4.31 3.3-.4 5.43-.9-.57.24-4.1-4.76 3.69-.17 5.64-.97-.77.15-4-5.36 4-5.36-4 .15 4-.97.77-.17-5.64-4.76-3.69.25 4.1-.9.57-.4-5.42L5 24.3l.8-.6 3.33 2.48-.43-6.14-4.55-3.14 1.03-.59 3.3 2.35-.45-6.98 5.83-2.95-3.37-1.91-.04-1.28 4.77 2.64 5.19-2.64-4.62-2.46 1.12.6v-1.3l4.57 2.68 5.38-2.67-.19 6.34-5.28 2.62-.84-.41v.83l-.76.38-4.67-2.62-5.89 2.96.43 6.91 5 3.49v-7.01l5.75-3.4v1.24l-4.68 2.75v5.75l-2.1 1.37 1.05.82v1.3l.92-.74 4.8 3.4v1.47l1.08-.7 1.07.7v-1.47l4.8-3.4.93.73v-1.3l1.05-.81-2.1-1.37v-5.75l-4.68-2.76V12.5l5.75 3.39v7l5-3.48.43-6.91-4.63-2.33V8.74l5.83 2.95-.45 6.98 3.3-2.35 1.03.59-4.55 3.14-.43 6.14 3.33-2.48z"/>
  <path fill="#fff" fill-rule="nonzero" d="M21.48 36.93v5.82l5.15-4.28.21-5.55-5.36 4zm11.11-8.56l-.34 5.65-4.6 3.68.18-5.64 4.76-3.69zm5.38-4.06l-.55 5.46-4.17 3.27.4-5.42 4.32-3.31zm-10.74-7.83v7.03l-5.75 4.11v-7.48l-5.75-3.66 5.75-3.39 5.75 3.39zm11.58.43l-.64 6.05-4.34 3.23.43-6.14 4.55-3.14zm-5.08-4.42l-.43 6.92-5 3.49v-7.02l-5.74-3.39 5.29-2.95 1.25.63 4.63 2.32zM29.1 8.74l5.83 2.95-.45 6.98 4.5-3.2.73-6.73-5.98-2.63-4.63 2.63zm-8.7 3.75l-5.74 3.4-5.43-3.4 5.89-2.95 5.29 2.95zM3.26 8.74l4.78 2.95 5.83-2.95-3.37-1.91-1.26-.72-5.98 2.63zm11.97-.55l5.19-2.64-4.62-2.46-.06-.03-5.28 2.49 4.77 2.64zm11.64-5.8L22.23 0l-5.32 2.4 4.57 2.66 5.38-2.66z"/>
</svg>
